<svg width="152" height="65" viewBox="0 0 152 65" fill="none" xmlns="http://www.w3.org/2000/svg">
<path d="M18.6478 38.9346C18.6478 40.1059 18.3617 41.1153 17.7895 41.9626C17.2433 42.785 16.333 43.5452 15.0586 44.243C14.2004 44.7414 13.1991 45.1153 12.0547 45.3645C10.9104 45.6137 9.75301 45.7383 8.58265 45.7383C7.38628 45.7383 5.90382 45.3645 4.13528 44.6168C2.86088 44.0187 1.84657 43.3084 1.09234 42.486C0.364112 41.6636 0 40.7664 0 39.7944C0 39.1215 0.156048 38.6355 0.468145 38.3364C0.780241 38.0125 1.2874 37.8505 1.98961 37.8505C2.35373 37.8505 2.73084 38 3.12096 38.2991C3.51108 38.5732 3.74516 38.8474 3.82318 39.1215C4.18729 40.1433 4.82449 40.9284 5.73477 41.4766C6.64505 42 7.7764 42.2617 9.12882 42.2617C10.6893 42.2617 11.9897 41.9875 13.03 41.4393C14.0964 40.891 14.6295 40.1558 14.6295 39.2336C14.6295 38.3364 14.0573 37.5389 12.913 36.8411C11.7686 36.1433 10.5983 35.6573 9.4019 35.3832C7.68537 34.9346 6.1639 34.3988 4.83749 33.7757C3.45907 33.1277 2.43175 32.3302 1.75554 31.3832C1.07933 30.4361 0.741229 29.4393 0.741229 28.3925C0.741229 27.4206 1.09234 26.4361 1.79455 25.4393C2.49677 24.4174 3.32903 23.6822 4.29133 23.2336C4.81149 22.9844 5.69576 22.7227 6.94414 22.4486C8.21854 22.1495 9.14182 22 9.714 22C10.4682 22 11.3005 22.0872 12.2108 22.2617C13.1211 22.4361 13.8623 22.6854 14.4345 23.0093C15.5788 23.6324 16.4241 24.1931 16.9702 24.6916C17.5164 25.19 17.7895 25.8131 17.7895 26.5607C17.7895 27.0093 17.6074 27.4081 17.2433 27.757C16.9052 28.1059 16.307 28.2804 15.4488 28.2804C15.2407 28.2804 15.0326 28.1931 14.8246 28.0187C14.6165 27.8442 14.3564 27.5826 14.0443 27.2336C13.6282 26.7103 13.2251 26.3614 12.835 26.1869C12.4448 26.0623 11.8727 25.9252 11.1184 25.7757C10.3902 25.6262 9.74001 25.5514 9.16783 25.5514C8.54364 25.5514 7.89344 25.676 7.21723 25.9252C6.54102 26.1745 5.96884 26.5358 5.5007 27.0093C5.05856 27.4579 4.83749 27.9813 4.83749 28.5794C4.83749 29.0779 5.07157 29.514 5.53971 29.8879C6.03386 30.2368 6.61904 30.5234 7.29525 30.7477C8.07549 31.0467 8.92075 31.3084 9.83104 31.5327C11.0274 31.8816 12.0027 32.2056 12.7569 32.5047C13.5372 32.7788 14.2914 33.1277 15.0196 33.5514C16.294 34.2741 17.2173 35.0218 17.7895 35.7944C18.3617 36.5421 18.6478 37.5888 18.6478 38.9346Z" fill="white"/>
<path d="M23.1936 32.6916C22.9595 32.6916 22.7384 32.7165 22.5304 32.7664C22.3223 32.7913 22.1142 32.8037 21.9062 32.8037C21.6201 32.8037 21.347 32.6791 21.0869 32.4299C20.8529 32.1807 20.7358 31.9564 20.7358 31.757C20.7358 31.109 21.0739 30.6106 21.7501 30.2617C22.4263 29.8878 23.1155 29.7009 23.8178 29.7009C24.416 29.7009 25.0271 29.9003 25.6513 30.2991C26.3015 30.6729 26.7827 31.1589 27.0948 31.757C27.771 30.9844 28.6032 30.4237 29.5915 30.0748C30.5799 29.7259 31.6072 29.5514 32.6735 29.5514C33.8699 29.5514 34.9752 29.9128 35.9895 30.6355C37.0298 31.3583 37.8491 32.2804 38.4473 33.4019C39.0455 34.4984 39.3446 35.595 39.3446 36.6916C39.3446 37.7632 39.2275 38.7227 38.9935 39.5701C38.7594 40.3925 38.3433 41.2274 37.7451 42.0748C37.0689 42.972 36.1586 43.7072 35.0142 44.2804C33.8959 44.8536 32.5565 45.1402 30.996 45.1402C30.5799 45.1402 30.0727 45.0405 29.4745 44.8411C28.8763 44.6168 28.3822 44.3801 27.9921 44.1308C27.81 45.8255 27.719 47.296 27.719 48.5421C27.719 49.2897 27.758 50 27.836 50.6729C27.888 51.4704 27.914 52.0436 27.914 52.3925C27.914 52.9408 27.719 53.3396 27.3289 53.5888C26.9387 53.8629 26.5096 54 26.0415 54C25.1052 54 24.481 53.7508 24.1689 53.2523C23.8828 52.7788 23.7397 52.0935 23.7397 51.1963C23.8438 49.053 23.9738 47.0717 24.1299 45.2523C24.2859 43.0093 24.3639 39.5452 24.3639 34.8598C24.3639 34.4112 24.2729 33.9377 24.0908 33.4393C23.9088 32.9408 23.6097 32.6916 23.1936 32.6916ZM28.1481 40.4299C28.2781 40.9034 28.6423 41.3022 29.2404 41.6262C29.8646 41.9252 30.4238 42.0748 30.918 42.0748C32.4004 42.0748 33.5058 41.6885 34.234 40.9159C34.7802 40.3676 35.1313 39.8318 35.2873 39.3084C35.4694 38.785 35.5604 37.9502 35.5604 36.8037C35.5604 35.9065 35.3783 35.1589 35.0142 34.5607C34.6501 33.9377 34.208 33.4891 33.6878 33.215C33.1677 32.9159 32.6735 32.7664 32.2054 32.7664C31.139 32.7664 30.2678 33.0779 29.5915 33.7009C28.9413 34.2991 28.5252 35.1215 28.3432 36.1682C28.2131 36.9907 28.1481 38.4112 28.1481 40.4299Z" fill="white"/>
<path d="M60.6957 43.9065C60.6957 44.4548 60.3836 44.9159 59.7594 45.2897C59.1613 45.6636 58.6021 45.8505 58.0819 45.8505C57.0936 45.8505 56.3004 45.7383 55.7022 45.514C55.13 45.2648 54.5968 44.8162 54.1027 44.1682C53.4265 44.7414 52.5032 45.1776 51.3328 45.4766C50.1625 45.7508 49.0831 45.8879 48.0948 45.8879C46.4823 45.8879 45.1559 45.4766 44.1156 44.6542C43.0753 43.8069 42.5551 42.5732 42.5551 40.9533C42.5551 40.2555 42.7502 39.6199 43.1403 39.0467C43.5304 38.4486 44.0636 37.9252 44.7398 37.4766C45.494 37.0031 46.3523 36.6417 47.3146 36.3925C48.2769 36.1184 49.2782 35.9813 50.3185 35.9813C50.8647 35.9813 51.5149 36.081 52.2691 36.2804C53.0234 36.4798 53.6085 36.6916 54.0247 36.9159V36.3178C54.0247 34.972 53.6866 34.0498 53.0104 33.5514C52.3341 33.028 51.2418 32.7664 49.7333 32.7664C49.2912 32.7664 48.8491 32.8536 48.4069 33.028C47.9908 33.2025 47.5097 33.4393 46.9635 33.7383C46.2353 34.1121 45.5461 34.2991 44.8959 34.2991C44.6618 34.2991 44.4407 34.1495 44.2326 33.8505C44.0246 33.5265 43.9205 33.2399 43.9205 32.9907C43.9205 32.2679 44.2717 31.6449 44.9739 31.1215C45.7021 30.5981 46.5604 30.2118 47.5487 29.9626C48.537 29.6885 49.4213 29.5514 50.2015 29.5514C50.9817 29.5514 51.879 29.7009 52.8933 30C53.9076 30.2741 54.7399 30.6604 55.3901 31.1589C56.1703 31.8069 56.7685 32.567 57.1846 33.4393C57.6268 34.2866 57.8478 35.2212 57.8478 36.243C57.8478 36.567 57.8218 37.053 57.7698 37.7009C57.7178 38.3988 57.6918 38.9969 57.6918 39.4953C57.6918 39.7196 57.6658 40.0561 57.6138 40.5047C57.5618 41.053 57.5358 41.4891 57.5358 41.8131C57.5358 42.1121 57.6528 42.3738 57.8869 42.5981C58.1209 42.7975 58.394 42.8972 58.7061 42.8972L59.7985 42.8598C60.0845 42.8598 60.3056 42.9595 60.4617 43.1589C60.6177 43.3583 60.6957 43.6075 60.6957 43.9065ZM48.1339 42.9346C49.2522 42.9346 50.1885 42.8224 50.9427 42.5981C51.697 42.3738 52.6072 41.9626 53.6736 41.3645C53.7776 40.9408 53.8426 40.3801 53.8686 39.6822C52.4382 39.0343 51.2548 38.7103 50.3185 38.7103C49.2522 38.7103 48.3029 38.8972 47.4706 39.271C46.6384 39.6449 46.2223 40.3053 46.2223 41.2523C46.2223 41.7259 46.4303 42.1246 46.8465 42.4486C47.2626 42.7726 47.6917 42.9346 48.1339 42.9346Z" fill="white"/>
<path d="M75.4222 34.3738C75.032 34.3738 74.6939 34.2866 74.4079 34.1122C74.1478 33.9128 73.8747 33.6511 73.5886 33.3271C73.3025 33.0031 72.9904 32.7913 72.6523 32.6916C72.3402 32.5919 71.9761 32.5421 71.56 32.5421C70.8057 32.5421 70.0645 32.7664 69.3363 33.215C68.6341 33.6386 68.0489 34.2368 67.5807 35.0093C67.1386 35.7819 66.9175 36.6417 66.9175 37.5888C66.9175 38.6355 67.1256 39.5078 67.5417 40.2056C67.9839 40.9034 68.6731 41.514 69.6094 42.0374C69.9475 42.2118 70.3376 42.3489 70.7797 42.4486C71.2479 42.5483 71.651 42.5981 71.9891 42.5981C72.7954 42.5981 73.8357 42.2617 75.1101 41.5888C75.2141 41.5389 75.4092 41.4517 75.6953 41.3271C76.0073 41.1776 76.2414 41.1028 76.3975 41.1028C76.6836 41.1028 77.0087 41.2399 77.3728 41.514C77.7369 41.7632 77.9189 42.0748 77.9189 42.4486C77.9189 43.1963 77.5808 43.8318 76.9046 44.3551C76.2544 44.8785 75.4352 45.2648 74.4469 45.514C73.4586 45.7632 72.4833 45.8879 71.521 45.8879C69.9865 45.8879 68.556 45.5514 67.2296 44.8785C65.9032 44.2056 64.8499 43.271 64.0697 42.0748C63.2894 40.8785 62.8993 39.5327 62.8993 38.0374C62.8993 36.4174 63.2764 34.9595 64.0306 33.6636C64.7849 32.3427 65.7992 31.3084 67.0736 30.5607C68.374 29.7882 69.7784 29.4019 71.2869 29.4019C72.7433 29.4019 74.0828 29.676 75.3051 30.2243C76.5535 30.7726 77.1777 31.6075 77.1777 32.729C77.1777 33.8255 76.5925 34.3738 75.4222 34.3738Z" fill="white"/>
<path d="M80.6528 37.1402C80.6528 35.6199 81.0039 34.3614 81.7062 33.3645C82.4084 32.3427 83.3837 31.3832 84.6321 30.486C84.9962 30.2368 85.6074 30.0249 86.4656 29.8505C87.3239 29.6511 88.0781 29.5514 88.7283 29.5514C89.5086 29.5514 90.3278 29.7134 91.1861 30.0374C92.0704 30.3364 92.7856 30.6854 93.3317 31.0841C94.294 31.757 94.9572 32.5421 95.3214 33.4393C95.6855 34.3115 95.8675 35.3583 95.8675 36.5794C95.8675 37.1028 95.5554 37.6137 94.9312 38.1121C94.333 38.5857 93.6829 38.8224 92.9806 38.8224L91.4982 38.785C90.7439 38.785 89.6646 38.81 88.2602 38.8598L87.4409 38.8972C86.8687 38.947 86.4396 38.972 86.1535 38.972C85.7374 38.972 85.1652 38.9221 84.437 38.8224C84.541 39.9938 84.9962 40.9159 85.8024 41.5888C86.6087 42.2368 87.4799 42.5607 88.4162 42.5607C90.0547 42.5607 91.1991 42.2492 91.8493 41.6262C92.3955 41.2523 92.7596 41.0156 92.9416 40.9159C93.1237 40.8162 93.4098 40.7664 93.7999 40.7664C94.216 40.7664 94.5801 40.9533 94.8922 41.3271C95.2043 41.7009 95.3604 42.0748 95.3604 42.4486C95.3604 42.8723 95.0873 43.3084 94.5411 43.757C94.021 44.1807 93.3057 44.6293 92.3955 45.1028C91.9013 45.3022 91.2251 45.4766 90.3668 45.6262C89.5086 45.7757 88.7933 45.8505 88.2212 45.8505C87.3109 45.8505 86.2966 45.6012 85.1782 45.1028C84.0599 44.5794 83.2276 44.0062 82.6815 43.3832C82.1353 42.7601 81.6541 41.8754 81.238 40.729C80.8479 39.5826 80.6528 38.3863 80.6528 37.1402ZM88.4162 36.1308C90.2628 36.1308 91.6152 36.0685 92.4735 35.9439C92.4215 35.2212 92.1874 34.6355 91.7713 34.1869C91.3551 33.7134 90.7829 33.3146 90.0547 32.9907C89.8207 32.891 89.6126 32.8162 89.4305 32.7664C89.2485 32.7165 89.0404 32.6916 88.8063 32.6916C87.61 32.6916 86.5957 33.0031 85.7634 33.6262C84.9572 34.2492 84.476 35.0467 84.32 36.0187C85.6204 36.0935 86.9858 36.1308 88.4162 36.1308Z" fill="white"/>
<path d="M128.1 23.757C128.1 24.2056 127.697 24.866 126.891 25.7383C126.318 26.3614 125.07 28.0685 123.145 30.8598C121.507 33.2274 120.246 34.9844 119.361 36.1308C119.387 38.7975 119.491 40.7539 119.673 42C119.751 42.7477 119.79 43.2835 119.79 43.6075C119.79 44.4299 119.634 44.9907 119.322 45.2897C119.036 45.5639 118.529 45.7009 117.801 45.7009C117.255 45.7009 116.734 45.5514 116.24 45.2523C115.772 44.9283 115.538 44.5421 115.538 44.0935C115.538 42.7975 115.499 40.3801 115.421 36.8411C115.421 36.6667 115.187 36.2056 114.719 35.4579C114.303 34.7601 113.275 33.4143 111.637 31.4206C110.05 29.4517 108.854 27.9065 108.048 26.785C107.268 25.6386 106.877 24.7664 106.877 24.1682C106.877 23.6449 107.125 23.2336 107.619 22.9346C108.139 22.6106 108.698 22.4486 109.296 22.4486C110.05 22.4486 110.662 22.785 111.13 23.4579C111.39 23.8069 111.793 24.4798 112.339 25.4766C112.729 26.1994 113.171 26.9595 113.666 27.757C114.16 28.5545 114.615 29.2025 115.031 29.7009L116.123 30.972C116.904 31.8692 117.294 32.3302 117.294 32.3551C118.074 31.6075 118.776 30.785 119.4 29.8879C120.025 28.9657 120.779 27.7944 121.663 26.3738L123.145 24.0561L123.809 23.0841C124.043 22.785 124.316 22.5483 124.628 22.3738C124.94 22.1994 125.369 22.1121 125.915 22.1121C126.409 22.1121 126.891 22.2492 127.359 22.5234C127.853 22.7975 128.1 23.2087 128.1 23.757Z" fill="white"/>
<path fill-rule="evenodd" clip-rule="evenodd" d="M111.604 60.5365C117.898 61.7492 124.429 60.9732 130.224 58.3233C136.019 55.6734 140.77 51.2898 143.766 45.8225C146.762 40.3549 147.841 34.0977 146.84 27.9841C145.84 21.8706 142.813 16.2319 138.216 11.9075C133.619 7.58339 127.697 4.80514 121.335 3.98276C114.974 3.1604 108.509 4.33724 102.902 7.33929C97.2956 10.3415 92.8459 15.0098 90.22 20.6517C90.0002 21.124 89.42 21.3371 88.9241 21.1278C88.4282 20.9184 88.2044 20.3659 88.4242 19.8936C91.2206 13.8854 95.9613 8.90986 101.94 5.70863C107.918 2.5074 114.814 1.25181 121.6 2.12902C128.385 3.00622 134.698 5.96923 139.596 10.5765C144.494 15.1837 147.716 21.1885 148.781 27.6959C149.846 34.2033 148.698 40.865 145.507 46.688C142.316 52.5111 137.254 57.1838 131.074 60.0097C124.894 62.8357 117.928 63.6636 111.214 62.3701C104.5 61.0765 98.3975 57.7308 93.8157 52.8315C93.455 52.4458 93.4909 51.8545 93.8959 51.5109C94.301 51.1673 94.9218 51.2015 95.2826 51.5873C99.5834 56.1861 105.309 59.3237 111.604 60.5365Z" fill="white"/>
</svg>
